# xmcd
# Track frame offsets:
# 150
# 30225
# 46890
# 64047
# 80620
# 96448
# 109560
# 120990
# 134315
# 152115
#
# Disc length: 2157 seconds
# Revision: 0
# Processed by: cddbd v1.4PL0 Copyright (c) Steve Scherf et al.
# Submitted via: VisiTrax 2.9.5.180 - For more info visit www.synapsa.com
#
DISCID=75086b0a
DTITLE=Willie Nelson - A Country Christmas
DYEAR=1900
DGENRE=
TTITLE0=Silent Night
TTITLE1=Pretty Paper
TTITLE2=Away In A Manger
TTITLE3=Deck The Halls
TTITLE4=It Came Upon A Midnight Clear
TTITLE5=Joy To The World
TTITLE6=O Come All Te Faithful
TTITLE7=O Little Town Of Bethlehem
TTITLE8=The First Noel
TTITLE9=We Wish You A Mery Christmas
EXTD=
EXTT0=
EXTT1=
EXTT2=
EXTT3=
EXTT4=
EXTT5=
EXTT6=
EXTT7=
EXTT8=
EXTT9=
PLAYORDER=
